<svg width="120" height="40" viewBox="0 0 120 40" fill="none" xmlns="http://www.w3.org/2000/svg">
<path d="M0 5.33333C0 2.38781 2.38781 0 5.33333 0H114.667C117.612 0 120 2.38781 120 5.33333V34.6667C120 37.6123 117.612 40 114.667 40H5.33333C2.38781 40 0 37.6123 0 34.6667V5.33333Z" fill="black"/>
<path d="M37 8V14.9137H39.3793C41.4839 14.9137 42.7201 13.6345 42.7201 11.4545C42.7201 9.27926 41.4789 8 39.3793 8H37ZM37.883 8.77618H39.3204C40.9295 8.77618 41.8174 9.73443 41.8174 11.464C41.8174 13.1793 40.9246 14.1376 39.3204 14.1376H37.883V8.77618ZM45.8009 15C47.2089 15 48.1606 14.0082 48.1606 12.4223C48.1606 10.8316 47.2089 9.84463 45.8009 9.84463C44.388 9.84463 43.4364 10.8316 43.4364 12.4223C43.4364 14.0082 44.388 15 45.8009 15ZM45.8009 14.2669C44.8982 14.2669 44.3046 13.5962 44.3046 12.4223C44.3046 11.2484 44.8982 10.5777 45.8009 10.5777C46.7036 10.5777 47.2922 11.2484 47.2922 12.4223C47.2922 13.5962 46.7036 14.2669 45.8009 14.2669ZM55.5143 9.93086H54.6705L53.6501 13.9842H53.6305L52.4727 9.93086H51.6486L50.4957 13.9842H50.4761L49.4557 9.93086H48.607L50.0346 14.9137H50.9029L52.0508 11.0568H52.0704L53.2233 14.9137H54.0916L55.5143 9.93086ZM56.2158 14.9137H57.0694V11.9815C57.0694 11.1383 57.5943 10.5825 58.3988 10.5825C59.1838 10.5825 59.5713 11.0232 59.5713 11.8282V14.9137H60.425V11.6797C60.425 10.5489 59.7774 9.84463 58.6589 9.84463C57.8691 9.84463 57.3245 10.1896 57.04 10.7262H57.0204V9.93086H56.2158V14.9137ZM61.5582 14.9137H62.4117V8H61.5582V14.9137ZM65.679 15C67.0869 15 68.0386 14.0082 68.0386 12.4223C68.0386 10.8316 67.0869 9.84463 65.679 9.84463C64.2661 9.84463 63.3144 10.8316 63.3144 12.4223C63.3144 14.0082 64.2661 15 65.679 15ZM65.679 14.2669C64.7763 14.2669 64.1828 13.5962 64.1828 12.4223C64.1828 11.2484 64.7763 10.5777 65.679 10.5777C66.5816 10.5777 67.1704 11.2484 67.1704 12.4223C67.1704 13.5962 66.5816 14.2669 65.679 14.2669ZM70.5847 14.2909C69.9715 14.2909 69.5643 13.9795 69.5643 13.5051C69.5643 13.0356 69.9568 12.7385 70.6436 12.6954L72.0074 12.614V13.0212C72.0074 13.7399 71.3893 14.2909 70.5847 14.2909ZM70.3934 15C71.0802 15 71.7278 14.6263 72.0319 14.0561H72.0515V14.9137H72.861V11.4689C72.861 10.477 72.1055 9.84463 70.9085 9.84463C69.7017 9.84463 68.9462 10.5058 68.8873 11.3682H69.7115C69.8194 10.8795 70.2315 10.5777 70.8889 10.5777C71.5953 10.5777 72.0074 10.9418 72.0074 11.5503V11.9672L70.5455 12.0486C69.3681 12.1157 68.696 12.6523 68.696 13.5051C68.696 14.4011 69.3779 15 70.3934 15ZM75.878 15C76.6139 15 77.1977 14.6454 77.5264 14.0705H77.5411V14.9137H78.3554V8H77.5018V10.7406H77.4822C77.178 10.1944 76.5894 9.84463 75.8584 9.84463C74.5731 9.84463 73.695 10.8604 73.695 12.4223C73.695 13.9842 74.578 15 75.878 15ZM76.0399 10.5777C76.9181 10.5777 77.5067 11.3107 77.5067 12.4223C77.5067 13.5387 76.9181 14.2669 76.0399 14.2669C75.1373 14.2669 74.5682 13.553 74.5682 12.4223C74.5682 11.2963 75.1373 10.5777 76.0399 10.5777ZM83.6833 15C85.0912 15 86.0429 14.0082 86.0429 12.4223C86.0429 10.8316 85.0912 9.84463 83.6833 9.84463C82.2703 9.84463 81.3185 10.8316 81.3185 12.4223C81.3185 14.0082 82.2703 15 83.6833 15ZM83.6833 14.2669C82.7804 14.2669 82.1867 13.5962 82.1867 12.4223C82.1867 11.2484 82.7804 10.5777 83.6833 10.5777C84.5857 10.5777 85.1743 11.2484 85.1743 12.4223C85.1743 13.5962 84.5857 14.2669 83.6833 14.2669ZM86.9061 14.9137H87.7596V11.9815C87.7596 11.1383 88.2848 10.5825 89.089 10.5825C89.874 10.5825 90.2618 11.0232 90.2618 11.8282V14.9137H91.1153V11.6797C91.1153 10.5489 90.4677 9.84463 89.3493 9.84463C88.5593 9.84463 88.0149 10.1896 87.7304 10.7262H87.7107V9.93086H86.9061V14.9137ZM94.5395 8.72827V9.93086H93.7791V10.616H94.5395V13.6201C94.5395 14.5783 94.9025 14.9521 95.8396 14.9521C96.0406 14.9521 96.2762 14.9377 96.379 14.9137V14.2142C96.3201 14.2238 96.1242 14.2382 96.026 14.2382C95.5894 14.2382 95.393 14.0321 95.393 13.577V10.616H96.384V9.93086H95.393V8.72827H94.5395ZM97.3408 14.9137H98.1943V12.0102C98.1943 11.1478 98.719 10.5825 99.568 10.5825C100.368 10.5825 100.775 11.0568 100.775 11.8474V14.9137H101.628V11.694C101.628 10.5825 100.951 9.84463 99.8329 9.84463C99.0579 9.84463 98.4984 10.1704 98.2139 10.7262H98.1943V8H97.3408V14.9137ZM104.758 10.5681C105.563 10.5681 106.098 11.1622 106.117 11.9959H103.345C103.399 11.167 103.959 10.5681 104.758 10.5681ZM106.098 13.4859C105.955 13.9555 105.479 14.2765 104.832 14.2765C103.914 14.2765 103.341 13.6489 103.341 12.6954V12.6475H107V12.3313C107 10.822 106.151 9.84463 104.773 9.84463C103.365 9.84463 102.462 10.8939 102.462 12.4415C102.462 14.0082 103.35 15 104.812 15C105.926 15 106.789 14.358 106.937 13.4859H106.098Z" fill="white"/>
<path d="M45.3661 31.124H47.2598L43.0968 19.1984H41.1631L37 31.124H38.8618L39.9165 27.9008H44.3113L45.3661 31.124ZM42.09 21.1818H42.1379L43.8559 26.4132H40.372L42.09 21.1818ZM53.0287 22.2893C51.8141 22.2893 50.8473 22.9256 50.3518 23.9256H50.3199V22.4298H48.6499V34H50.3758V29.6942H50.4158C50.8952 30.6612 51.8541 31.2727 53.0606 31.2727C55.1701 31.2727 56.5685 29.5289 56.5685 26.7768C56.5685 24.0248 55.1621 22.2893 53.0287 22.2893ZM52.5732 29.7603C51.2468 29.7603 50.3678 28.5868 50.3678 26.7768C50.3678 24.9835 51.2548 23.7934 52.5732 23.7934C53.9396 23.7934 54.7946 24.9587 54.7946 26.7768C54.7946 28.6033 53.9396 29.7603 52.5732 29.7603ZM62.609 22.2893C61.3944 22.2893 60.4276 22.9256 59.9322 23.9256H59.9002V22.4298H58.2302V34H59.9561V29.6942H59.9961C60.4755 30.6612 61.4344 31.2727 62.6409 31.2727C64.7504 31.2727 66.1488 29.5289 66.1488 26.7768C66.1488 24.0248 64.7425 22.2893 62.609 22.2893ZM62.1535 29.7603C60.8271 29.7603 59.9481 28.5868 59.9481 26.7768C59.9481 24.9835 60.8351 23.7934 62.1535 23.7934C63.5199 23.7934 64.3749 24.9587 64.3749 26.7768C64.3749 28.6033 63.5199 29.7603 62.1535 29.7603ZM71.1582 27.8017C71.2701 29.9587 72.9961 31.3223 75.5529 31.3223C78.2858 31.3223 80.0037 29.9256 80.0037 27.6942C80.0037 25.9504 79.0208 24.9669 76.6557 24.3884L75.3854 24.0661C73.899 23.686 73.2918 23.1901 73.2918 22.3471C73.2918 21.2893 74.2427 20.562 75.633 20.562C77.0232 20.562 77.9742 21.281 78.078 22.4711H79.8198C79.7639 20.4132 78.094 19 75.6568 19C73.1957 19 71.4618 20.4132 71.4618 22.4711C71.4618 24.1322 72.4447 25.157 74.5621 25.686L76.0563 26.0578C77.5505 26.438 78.1819 26.9917 78.1819 27.9174C78.1819 28.9835 77.1349 29.7603 75.681 29.7603C74.1626 29.7603 73.052 28.9835 72.9243 27.8017H71.1582ZM82.2329 20.3719V22.4298H81.0101V23.843H82.2329V28.8347C82.2329 30.5124 82.896 31.1818 84.5979 31.1818C84.9814 31.1818 85.3649 31.1488 85.5567 31.0992V29.686C85.4449 29.7108 85.1653 29.7273 84.9896 29.7273C84.2863 29.7273 83.9668 29.3884 83.9668 28.6364V23.843H85.5648V22.4298H83.9668V20.3719H82.2329ZM90.7183 31.2893C93.1235 31.2893 94.7055 29.5785 94.7055 26.7768C94.7055 23.9835 93.1157 22.2727 90.7183 22.2727C88.3212 22.2727 86.731 23.9835 86.731 26.7768C86.731 29.5785 88.3134 31.2893 90.7183 31.2893ZM90.7183 29.8182C89.3678 29.8182 88.4891 28.7107 88.4891 26.7768C88.4891 24.8512 89.3678 23.7438 90.7183 23.7438C92.0687 23.7438 92.9478 24.8512 92.9478 26.7768C92.9478 28.7107 92.0769 29.8182 90.7183 29.8182ZM96.3672 31.124H98.0934V25.9174C98.0934 24.6859 98.7803 23.9174 99.8913 23.9174C100.227 23.9174 100.53 23.9587 100.666 24.0165V22.3554C100.538 22.3306 100.322 22.2893 100.075 22.2893C99.0841 22.2893 98.3331 22.8926 98.0535 23.9091H98.0133V22.4298H96.3672V31.124ZM105.213 23.7107C106.419 23.7107 107.234 24.6446 107.274 25.9752H103.071C103.159 24.6611 104.006 23.7107 105.213 23.7107ZM107.266 28.5703C107.034 29.3306 106.307 29.843 105.324 29.843C103.942 29.843 103.063 28.843 103.063 27.3306V27.2231H109V26.6116C109 23.9752 107.546 22.2727 105.213 22.2727C102.839 22.2727 101.321 24.0909 101.321 26.8182C101.321 29.562 102.815 31.2893 105.285 31.2893C107.21 31.2893 108.665 30.157 108.904 28.5703H107.266Z" fill="white"/>
<path d="M28.2478 26.1584C27.8887 26.9875 27.4637 27.7506 26.9713 28.4522C26.3 29.4086 25.7504 30.0707 25.3268 30.4383C24.6702 31.0417 23.9667 31.3508 23.2134 31.3684C22.6726 31.3684 22.0204 31.2146 21.2612 30.9026C20.4995 30.5921 19.7995 30.4383 19.1595 30.4383C18.4882 30.4383 17.7683 30.5921 16.9982 30.9026C16.227 31.2146 15.6057 31.3772 15.1307 31.3933C14.4083 31.424 13.6883 31.1062 12.9695 30.4383C12.5108 30.0384 11.937 29.353 11.2496 28.3819C10.5121 27.3449 9.90574 26.1423 9.43073 24.7714C8.92201 23.2906 8.66699 21.8566 8.66699 20.4684C8.66699 18.8782 9.01083 17.5066 9.69953 16.3573C10.2408 15.4341 10.9609 14.7058 11.8621 14.1712C12.7633 13.6366 13.7371 13.3642 14.7857 13.3467C15.3595 13.3467 16.112 13.5241 17.047 13.8727C17.9795 14.2225 18.5782 14.3999 18.8407 14.3999C19.0369 14.3999 19.702 14.1925 20.8295 13.779C21.8958 13.3955 22.7957 13.2367 23.5329 13.2993C25.5305 13.4604 27.0314 14.2474 28.0294 15.6652C26.2428 16.747 25.3591 18.2623 25.3767 20.2061C25.3928 21.7201 25.9424 22.9801 27.0226 23.9804C27.5121 24.4448 28.0588 24.8036 28.667 25.0585C28.5351 25.4407 28.3959 25.8069 28.2478 26.1584ZM23.6663 8.14121C23.6663 9.32792 23.2324 10.436 22.3677 11.4615C21.3242 12.6807 20.062 13.3853 18.6932 13.2741C18.6758 13.1317 18.6657 12.9819 18.6657 12.8244C18.6657 11.6852 19.1619 10.466 20.0432 9.46911C20.4832 8.96437 21.0428 8.54469 21.7214 8.20991C22.3985 7.88012 23.039 7.69773 23.6413 7.6665C23.6589 7.82515 23.6663 7.9838 23.6663 8.1412V8.14121Z" fill="white"/>
</svg>
