<svg width="120" height="40" viewBox="0 0 120 40" fill="none" xmlns="http://www.w3.org/2000/svg">
<path d="M0 5.33333C0 2.38781 2.38781 0 5.33333 0H114.667C117.612 0 120 2.38781 120 5.33333V34.6667C120 37.6123 117.612 40 114.667 40H5.33333C2.38781 40 0 37.6123 0 34.6667V5.33333Z" fill="black"/>
<path d="M34 25.4091C34 24.4684 34.2169 23.6245 34.6508 22.8775C35.0939 22.1304 35.6894 21.5494 36.4371 21.1344C37.1941 20.7102 38.0203 20.498 38.9157 20.498C39.9404 20.498 40.8497 20.7517 41.6436 21.2589C42.4468 21.7569 43.0283 22.4671 43.3884 23.3893H41.4913C41.2421 22.9098 40.8959 22.5501 40.4528 22.3103C40.0097 22.0613 39.4973 21.9368 38.9157 21.9368C38.2788 21.9368 37.711 22.0797 37.2125 22.3656C36.714 22.6515 36.3217 23.0573 36.0355 23.583C35.7586 24.1087 35.6201 24.7174 35.6201 25.4091C35.6201 26.1008 35.7586 26.7141 36.0355 27.249C36.3217 27.7747 36.714 28.1805 37.2125 28.4664C37.711 28.7523 38.2788 28.8953 38.9157 28.8953C39.7743 28.8953 40.4712 28.6555 41.0067 28.1759C41.5513 27.6871 41.879 27.0277 41.9898 26.1976H38.3757V24.9664H43.6791V26.1976C43.5776 26.9447 43.3099 27.6317 42.876 28.2589C42.4514 28.886 41.8929 29.3887 41.2005 29.7668C40.5174 30.1357 39.7558 30.3202 38.9157 30.3202C38.011 30.3202 37.1848 30.1126 36.4371 29.6976C35.6894 29.2734 35.0939 28.6877 34.6508 27.9407C34.2169 27.1937 34 26.3498 34 25.4091ZM48.2686 30.3617C47.5485 30.3617 46.8977 30.2003 46.3162 29.8775C45.7346 29.5455 45.2776 29.0843 44.9453 28.4941C44.613 27.8946 44.4468 27.2029 44.4468 26.419C44.4468 25.6443 44.6176 24.9572 44.9591 24.3577C45.3007 23.7582 45.7669 23.2971 46.3577 22.9743C46.9485 22.6515 47.6086 22.4901 48.3378 22.4901C49.0671 22.4901 49.7272 22.6515 50.318 22.9743C50.9088 23.2971 51.375 23.7582 51.7165 24.3577C52.0581 24.9572 52.2289 25.6443 52.2289 26.419C52.2289 27.1937 52.0535 27.8808 51.7027 28.4802C51.3519 29.0797 50.8719 29.5455 50.2626 29.8775C49.6626 30.2003 48.9979 30.3617 48.2686 30.3617ZM48.2686 29.0336C48.6748 29.0336 49.0533 28.9321 49.4041 28.7292C49.7641 28.5264 50.0549 28.2312 50.2764 27.8439C50.498 27.4473 50.6088 26.9723 50.6088 26.419C50.6088 25.8656 50.5026 25.3953 50.2903 25.0079C50.078 24.6113 49.7964 24.3162 49.4456 24.1225C49.0948 23.9196 48.7163 23.8182 48.3101 23.8182C47.904 23.8182 47.5301 23.9196 47.1885 24.1225C46.847 24.3162 46.57 24.6113 46.3577 25.0079C46.1546 25.3953 46.0531 25.8656 46.0531 26.419C46.0531 26.9723 46.15 27.4473 46.3438 27.8439C46.547 28.2404 46.8146 28.5402 47.147 28.7431C47.4886 28.9368 47.8624 29.0336 48.2686 29.0336ZM56.8219 30.3617C56.1019 30.3617 55.451 30.2003 54.8695 29.8775C54.2879 29.5455 53.8309 29.0843 53.4986 28.4941C53.1663 27.8946 53.0001 27.2029 53.0001 26.419C53.0001 25.6443 53.1709 24.9572 53.5124 24.3577C53.854 23.7582 54.3202 23.2971 54.911 22.9743C55.5018 22.6515 56.1619 22.4901 56.8911 22.4901C57.6204 22.4901 58.2805 22.6515 58.8713 22.9743C59.4621 23.2971 59.9283 23.7582 60.2698 24.3577C60.6114 24.9572 60.7822 25.6443 60.7822 26.419C60.7822 27.1937 60.6068 27.8808 60.256 28.4802C59.9052 29.0797 59.4252 29.5455 58.8159 29.8775C58.2159 30.2003 57.5512 30.3617 56.8219 30.3617ZM56.8219 29.0336C57.2281 29.0336 57.6066 28.9321 57.9574 28.7292C58.3174 28.5264 58.6082 28.2312 58.8297 27.8439C59.0513 27.4473 59.1621 26.9723 59.1621 26.419C59.1621 25.8656 59.0559 25.3953 58.8436 25.0079C58.6313 24.6113 58.3497 24.3162 57.9989 24.1225C57.6481 23.9196 57.2696 23.8182 56.8634 23.8182C56.4573 23.8182 56.0834 23.9196 55.7418 24.1225C55.4003 24.3162 55.1233 24.6113 54.911 25.0079C54.7079 25.3953 54.6064 25.8656 54.6064 26.419C54.6064 26.9723 54.7033 27.4473 54.8971 27.8439C55.1003 28.2404 55.368 28.5402 55.7003 28.7431C56.0419 28.9368 56.4157 29.0336 56.8219 29.0336ZM65.1398 22.4901C65.7306 22.4901 66.2522 22.61 66.7046 22.8498C67.1661 23.0804 67.5261 23.3709 67.7846 23.7213V22.6146H69.3771V30.3617C69.3771 31.0626 69.2293 31.6851 68.934 32.2292C68.6385 32.7826 68.2093 33.2161 67.6462 33.5296C67.0923 33.8432 66.4276 34 65.6522 34C64.6182 34 63.7597 33.7556 63.0766 33.2668C62.3935 32.7872 62.0058 32.1324 61.9135 31.3024H63.4782C63.5982 31.6989 63.8521 32.0171 64.2398 32.2569C64.6367 32.5059 65.1075 32.6304 65.6522 32.6304C66.2892 32.6304 66.8015 32.4368 67.1892 32.0494C67.5862 31.6621 67.7846 31.0995 67.7846 30.3617V29.0889C67.5169 29.4486 67.1523 29.753 66.6907 30.002C66.2384 30.2418 65.7214 30.3617 65.1398 30.3617C64.4752 30.3617 63.8659 30.1957 63.312 29.8636C62.7674 29.5224 62.3335 29.0521 62.0104 28.4526C61.6965 27.8439 61.5396 27.1568 61.5396 26.3913C61.5396 25.6258 61.6965 24.9479 62.0104 24.3577C62.3335 23.7675 62.7674 23.3109 63.312 22.9881C63.8659 22.6561 64.4752 22.4901 65.1398 22.4901ZM67.7846 26.419C67.7846 25.8933 67.6739 25.4368 67.4523 25.0494C67.24 24.6621 66.9584 24.3669 66.6076 24.164C66.2568 23.9611 65.8783 23.8597 65.4722 23.8597C65.066 23.8597 64.6875 23.9611 64.3367 24.164C63.9859 24.3577 63.6997 24.6482 63.4782 25.0356C63.2658 25.4137 63.1597 25.8656 63.1597 26.3913C63.1597 26.917 63.2658 27.3781 63.4782 27.7747C63.6997 28.1713 63.9859 28.4756 64.3367 28.6877C64.6967 28.8906 65.0752 28.9921 65.4722 28.9921C65.8783 28.9921 66.2568 28.8906 66.6076 28.6877C66.9584 28.4849 67.24 28.1897 67.4523 27.8024C67.6739 27.4058 67.7846 26.9447 67.7846 26.419ZM72.7519 20V30.2372H71.1734V20H72.7519ZM81.5405 26.2115C81.5405 26.4789 81.5219 26.7279 81.4851 26.9585H75.6416C75.6879 27.5949 75.9138 28.1021 76.3201 28.4802C76.7264 28.8491 77.2293 29.0336 77.8295 29.0336C78.6789 29.0336 79.2787 28.6785 79.6296 27.9684H81.3328C81.1021 28.6693 80.682 29.2457 80.0727 29.6976C79.4725 30.1403 78.7248 30.3617 77.8295 30.3617C77.1003 30.3617 76.4448 30.2003 75.8632 29.8775C75.2907 29.5455 74.8385 29.0843 74.5062 28.4941C74.1829 27.8946 74.0215 27.2029 74.0215 26.419C74.0215 25.6351 74.1786 24.9479 74.4923 24.3577C74.8155 23.7582 75.263 23.2971 75.8355 22.9743C76.4171 22.6515 77.0817 22.4901 77.8295 22.4901C78.5495 22.4901 79.1912 22.6469 79.7542 22.9605C80.3172 23.274 80.7559 23.7121 81.0697 24.2747C81.3834 24.8373 81.5405 25.4829 81.5405 26.2115ZM79.8927 25.8241C79.8836 25.2062 79.6759 24.7174 79.2696 24.3577C78.8727 23.998 78.3695 23.8182 77.7602 23.8182C77.2063 23.8182 76.7308 23.998 76.334 24.3577C75.9463 24.7174 75.72 25.2062 75.6555 25.8241H79.8927ZM93.4213 23.4862C93.4213 23.975 93.3058 24.4361 93.0752 24.8696C92.8441 25.303 92.475 25.6581 91.9674 25.9348C91.4594 26.2023 90.8086 26.336 90.0149 26.336H88.2702V30.2372H86.6916V20.6225H90.0149C90.7532 20.6225 91.3763 20.7517 91.8843 21.0099C92.401 21.2589 92.7844 21.6001 93.0336 22.0336C93.292 22.4671 93.4213 22.9513 93.4213 23.4862ZM90.0149 25.1047C90.6147 25.1047 91.0626 24.9618 91.3581 24.6759C91.6533 24.39 91.8012 23.9934 91.8012 23.4862C91.8012 22.9697 91.6533 22.5685 91.3581 22.2826C91.0626 21.9967 90.6147 21.8538 90.0149 21.8538H88.2702V25.1047H90.0149ZM96.2283 20V30.2372H94.6497V20H96.2283ZM97.4979 26.3913C97.4979 25.6258 97.6545 24.9479 97.9687 24.3577C98.2915 23.7675 98.7255 23.3109 99.2703 22.9881C99.8242 22.6561 100.433 22.4901 101.098 22.4901C101.698 22.4901 102.22 22.61 102.663 22.8498C103.115 23.0804 103.475 23.3709 103.743 23.7213V22.6146H105.335V30.2372H103.743V29.1028C103.475 29.4625 103.11 29.7622 102.649 30.002C102.187 30.2418 101.661 30.3617 101.07 30.3617C100.415 30.3617 99.8147 30.1957 99.2703 29.8636C98.7255 29.5224 98.2915 29.0521 97.9687 28.4526C97.6545 27.8439 97.4979 27.1568 97.4979 26.3913ZM103.743 26.419C103.743 25.8933 103.632 25.4368 103.411 25.0494C103.198 24.6621 102.916 24.3669 102.566 24.164C102.215 23.9611 101.836 23.8597 101.43 23.8597C101.024 23.8597 100.646 23.9611 100.295 24.164C99.9441 24.3577 99.658 24.6482 99.4365 25.0356C99.224 25.4137 99.118 25.8656 99.118 26.3913C99.118 26.917 99.224 27.3781 99.4365 27.7747C99.658 28.1713 99.9441 28.4756 100.295 28.6877C100.655 28.8906 101.033 28.9921 101.43 28.9921C101.836 28.9921 102.215 28.8906 102.566 28.6877C102.916 28.4849 103.198 28.1897 103.411 27.8024C103.632 27.4058 103.743 26.9447 103.743 26.419ZM107.99 22.6146L110.137 28.4249L112.366 22.6146H114L109.32 33.8202H107.686L109.237 30.1126L106.232 22.6146H107.99Z" fill="white"/>
<path d="M34 12.5C34 11.8315 34.1508 11.2317 34.4523 10.7008C34.7605 10.1634 35.1767 9.74719 35.7012 9.45225C36.2256 9.15075 36.8058 9 37.4417 9C38.1694 9 38.8118 9.18025 39.3691 9.54073C39.9329 9.90122 40.3426 10.4092 40.5982 11.0646H39.5264C39.3363 10.6648 39.0609 10.3567 38.7004 10.1404C38.3398 9.9176 37.9203 9.80618 37.4417 9.80618C36.9631 9.80618 36.5305 9.9176 36.1437 10.1404C35.7635 10.3567 35.4619 10.6713 35.239 11.0843C35.0227 11.4907 34.9145 11.9626 34.9145 12.5C34.9145 13.0374 35.0227 13.5093 35.239 13.9157C35.4619 14.3221 35.7635 14.6367 36.1437 14.8596C36.5305 15.0758 36.9631 15.184 37.4417 15.184C38.1169 15.184 38.6709 14.9841 39.1036 14.5843C39.5362 14.1779 39.7854 13.6306 39.8509 12.9424H37.1172V12.2346H40.8047V12.9228C40.7523 13.4864 40.5753 14.0042 40.2737 14.4761C39.9722 14.9415 39.5756 15.3118 39.0839 15.5871C38.5922 15.8558 38.0448 15.9902 37.4417 15.9902C36.8058 15.9902 36.2256 15.8427 35.7012 15.5478C35.1767 15.2463 34.7605 14.8301 34.4523 14.2992C34.1508 13.7683 34 13.1685 34 12.5ZM43.3744 9.77669V12.1264H45.8721V12.8146H43.3744V15.2233H46.1671V15.9312H42.4796V9.06882H46.1671V9.77669H43.3744ZM52.2313 9.07865V9.77669H50.363V15.9312H49.4681V9.77669H47.59V9.07865H52.2313ZM58.1399 9.07865V15.9312H57.2451V9.07865H58.1399ZM64.3752 9.07865V9.77669H62.5069V15.9312H61.612V9.77669H59.7339V9.07865H64.3752ZM72.4964 16C71.8604 16 71.2803 15.8525 70.7559 15.5576C70.2314 15.2561 69.8151 14.8399 69.507 14.309C69.2054 13.7716 69.0547 13.1685 69.0547 12.5C69.0547 11.8315 69.2054 11.2317 69.507 10.7008C69.8151 10.1634 70.2314 9.74719 70.7559 9.45225C71.2803 9.15075 71.8604 9 72.4964 9C73.1388 9 73.7223 9.15075 74.2467 9.45225C74.7711 9.74719 75.1841 10.1601 75.4857 10.691C75.7873 11.2219 75.9381 11.8249 75.9381 12.5C75.9381 13.1751 75.7873 13.7781 75.4857 14.309C75.1841 14.8399 74.7711 15.2561 74.2467 15.5576C73.7223 15.8525 73.1388 16 72.4964 16ZM72.4964 15.1938C72.9749 15.1938 73.4043 15.0824 73.7846 14.8596C74.1713 14.6367 74.4729 14.3221 74.6892 13.9157C74.9121 13.5093 75.0236 13.0374 75.0236 12.5C75.0236 11.9626 74.9121 11.4907 74.6892 11.0843C74.4729 10.6713 74.1713 10.3567 73.7846 10.1404C73.4043 9.9176 72.9749 9.80618 72.4964 9.80618C72.0178 9.80618 71.5851 9.9176 71.1984 10.1404C70.8181 10.3567 70.5166 10.6713 70.2937 11.0843C70.0773 11.4907 69.9692 11.9626 69.9692 12.5C69.9692 13.0374 70.0773 13.5093 70.2937 13.9157C70.5166 14.3221 70.8181 14.6367 71.1984 14.8596C71.5851 15.0824 72.0178 15.1938 72.4964 15.1938ZM83 15.9312H82.1049L78.5059 10.4747V15.9312H77.611V9.06882H78.5059L82.1049 14.5155V9.06882H83V15.9312Z" fill="white"/>
<mask id="mask0" mask-type="alpha" maskUnits="userSpaceOnUse" x="8" y="8" width="21" height="24">
<path d="M8.66699 9.96079C8.66699 8.93782 9.77142 8.2959 10.6603 8.80224L27.3913 18.333C28.2685 18.8328 28.2937 20.0884 27.4371 20.6228L10.7061 31.0612C9.818 31.6153 8.66699 30.9768 8.66699 29.93V9.96079Z" fill="#C4C4C4"/>
</mask>
<g mask="url(#mask0)">
<path d="M8.66602 9.96079C8.66602 8.93782 9.77045 8.2959 10.6593 8.80224L27.3903 18.333C28.2676 18.8328 28.2927 20.0884 27.4361 20.6228L10.7051 31.0612C9.81702 31.6153 8.66602 30.9768 8.66602 29.93V9.96079Z" fill="#00F076"/>
<path d="M27.333 27.3335L6.99968 6.8335L5.33301 31.3335L9.83301 34.8335L27.333 27.3335Z" fill="#00C9FF"/>
<path d="M5.83301 33.1668L25.1663 14.3335L32.833 17.5002L18.9997 33.8335L5.83301 33.1668Z" fill="#F53349"/>
<path fill-rule="evenodd" clip-rule="evenodd" d="M25.8073 25.7954L32.833 17.5002L25.1663 14.3335L19.7103 19.6484L25.8073 25.7954ZM22.8932 29.2363L12.8883 33.5241L18.9997 33.8335L22.8932 29.2363ZM7.81933 33.2674L6.65755 32.3637L5.83301 33.1668L7.81933 33.2674Z" fill="#FFCC00"/>
</g>
</svg>
